<svg width="64" height="25" viewBox="0 0 64 25" fill="none" xmlns="http://www.w3.org/2000/svg">
<path d="M37 10.5H39C41 10.5 42 9.5 42 7.5V5.5C42 3.5 41 2.5 39 2.5H37C35 2.5 34 3.5 34 5.5V7.5C34 9.5 35 10.5 37 10.5Z" stroke="#221F1F" stroke-width="1.5" stroke-miterlimit="10" stroke-linecap="round" stroke-linejoin="round"/>
<path d="M25 22.5H27C29 22.5 30 21.5 30 19.5V17.5C30 15.5 29 14.5 27 14.5H25C23 14.5 22 15.5 22 17.5V19.5C22 21.5 23 22.5 25 22.5Z" stroke="#221F1F" stroke-width="1.5" stroke-miterlimit="10" stroke-linecap="round" stroke-linejoin="round"/>
<path d="M26 10.5C28.2091 10.5 30 8.70914 30 6.5C30 4.29086 28.2091 2.5 26 2.5C23.7909 2.5 22 4.29086 22 6.5C22 8.70914 23.7909 10.5 26 10.5Z" stroke="#221F1F" stroke-width="1.5" stroke-miterlimit="10" stroke-linecap="round" stroke-linejoin="round"/>
<path d="M38 22.5C40.2091 22.5 42 20.7091 42 18.5C42 16.2909 40.2091 14.5 38 14.5C35.7909 14.5 34 16.2909 34 18.5C34 20.7091 35.7909 22.5 38 22.5Z" stroke="#221F1F" stroke-width="1.5" stroke-miterlimit="10" stroke-linecap="round" stroke-linejoin="round"/>
</svg>
